<svg xmlns="http://www.w3.org/2000/svg" xmlns:xlink="http://www.w3.org/1999/xlink" width="325" zoomAndPan="magnify" viewBox="0 0 243.75 187.499995" height="250" preserveAspectRatio="xMidYMid meet" version="1.0"><defs><clipPath id="79579bb67d"><path d="M 79.152344 59.457031 L 164.597656 59.457031 L 164.597656 144.90625 L 79.152344 144.90625 Z M 79.152344 59.457031 " clip-rule="nonzero"/></clipPath><clipPath id="ca198f6cb5"><path d="M 121.875 59.457031 C 98.277344 59.457031 79.152344 78.585938 79.152344 102.183594 C 79.152344 125.777344 98.277344 144.90625 121.875 144.90625 C 145.472656 144.90625 164.597656 125.777344 164.597656 102.183594 C 164.597656 78.585938 145.472656 59.457031 121.875 59.457031 " clip-rule="nonzero"/></clipPath><clipPath id="716516f251"><path d="M 92.03125 74.210938 L 151.179688 74.210938 L 151.179688 130.371094 L 92.03125 130.371094 Z M 92.03125 74.210938 " clip-rule="nonzero"/></clipPath><clipPath id="6ba500e0f4"><path d="M 92.476562 47.027344 L 99.964844 47.027344 L 99.964844 54.515625 L 92.476562 54.515625 Z M 92.476562 47.027344 " clip-rule="nonzero"/></clipPath><clipPath id="635f7283ee"><path d="M 214.097656 85.757812 L 221.585938 85.757812 L 221.585938 93.246094 L 214.097656 93.246094 Z M 214.097656 85.757812 " clip-rule="nonzero"/></clipPath><clipPath id="f866fd9198"><path d="M 210.769531 121.484375 L 218.257812 121.484375 L 218.257812 127.476562 L 210.769531 127.476562 Z M 210.769531 121.484375 " clip-rule="nonzero"/></clipPath><clipPath id="0c3cb017e4"><path d="M 171 75 L 180 75 L 180 83 L 171 83 Z M 171 75 " clip-rule="nonzero"/></clipPath><clipPath id="5b88ce9268"><path d="M 173.714844 74.070312 L 181.359375 77.132812 L 179.132812 82.695312 L 171.488281 79.628906 Z M 173.714844 74.070312 " clip-rule="nonzero"/></clipPath><clipPath id="8411baa21c"><path d="M 173.714844 74.070312 L 181.359375 77.132812 L 179.132812 82.695312 L 171.488281 79.628906 Z M 173.714844 74.070312 " clip-rule="nonzero"/></clipPath><clipPath id="b295d4909c"><path d="M 164.597656 136.320312 L 169.398438 136.320312 L 169.398438 141.570312 L 164.597656 141.570312 Z M 164.597656 136.320312 " clip-rule="nonzero"/></clipPath><clipPath id="eccb7469bc"><path d="M 167 136.320312 C 165.675781 136.320312 164.597656 137.488281 164.597656 138.929688 C 164.597656 140.371094 165.675781 141.539062 167 141.539062 C 168.324219 141.539062 169.398438 140.371094 169.398438 138.929688 C 169.398438 137.488281 168.324219 136.320312 167 136.320312 " clip-rule="nonzero"/></clipPath><clipPath id="69ae0f5e3f"><path d="M 175.234375 108.796875 L 177.925781 108.796875 L 177.925781 111.488281 L 175.234375 111.488281 Z M 175.234375 108.796875 " clip-rule="nonzero"/></clipPath><clipPath id="164ada3302"><path d="M 176.582031 108.796875 C 175.835938 108.796875 175.234375 109.398438 175.234375 110.140625 C 175.234375 110.886719 175.835938 111.488281 176.582031 111.488281 C 177.324219 111.488281 177.925781 110.886719 177.925781 110.140625 C 177.925781 109.398438 177.324219 108.796875 176.582031 108.796875 " clip-rule="nonzero"/></clipPath><clipPath id="ff0af03b29"><path d="M 164.597656 31.679688 L 171.433594 31.679688 L 171.433594 38.515625 L 164.597656 38.515625 Z M 164.597656 31.679688 " clip-rule="nonzero"/></clipPath><clipPath id="76c3c38bdd"><path d="M 168.015625 31.679688 L 169.105469 34.011719 L 171.433594 35.097656 L 169.105469 36.1875 L 168.015625 38.515625 L 166.929688 36.1875 L 164.597656 35.097656 L 166.929688 34.011719 L 168.015625 31.679688 " clip-rule="nonzero"/></clipPath><clipPath id="40fe1288af"><path d="M 71.238281 52.582031 L 75.882812 52.582031 L 75.882812 57.230469 L 71.238281 57.230469 Z M 71.238281 52.582031 " clip-rule="nonzero"/></clipPath><clipPath id="0698546b11"><path d="M 73.5625 52.582031 L 74.300781 54.167969 L 75.882812 54.90625 L 74.300781 55.644531 L 73.5625 57.230469 L 72.824219 55.644531 L 71.238281 54.90625 L 72.824219 54.167969 L 73.5625 52.582031 " clip-rule="nonzero"/></clipPath><clipPath id="45d5f5a087"><path d="M 67.230469 74.066406 L 73.5625 74.066406 L 73.5625 80.398438 L 67.230469 80.398438 Z M 67.230469 74.066406 " clip-rule="nonzero"/></clipPath><clipPath id="893e5f2102"><path d="M 70.398438 74.066406 L 71.402344 76.226562 L 73.5625 77.230469 L 71.402344 78.238281 L 70.398438 80.398438 L 69.390625 78.238281 L 67.230469 77.230469 L 69.390625 76.226562 L 70.398438 74.066406 " clip-rule="nonzero"/></clipPath><clipPath id="7c1c8f1aea"><path d="M 154.808594 57.230469 L 159.605469 57.230469 L 159.605469 62.480469 L 154.808594 62.480469 Z M 154.808594 57.230469 " clip-rule="nonzero"/></clipPath><clipPath id="c6cf1e1ee8"><path d="M 157.207031 57.230469 C 155.882812 57.230469 154.808594 58.398438 154.808594 59.839844 C 154.808594 61.28125 155.882812 62.449219 157.207031 62.449219 C 158.53125 62.449219 159.605469 61.28125 159.605469 59.839844 C 159.605469 58.398438 158.53125 57.230469 157.207031 57.230469 " clip-rule="nonzero"/></clipPath><clipPath id="bdf38556a3"><path d="M 63.988281 105.460938 L 68.480469 105.460938 L 68.480469 109.957031 L 63.988281 109.957031 Z M 63.988281 105.460938 " clip-rule="nonzero"/></clipPath><clipPath id="3287190d49"><path d="M 23.925781 65.441406 L 26.617188 65.441406 L 26.617188 68.132812 L 23.925781 68.132812 Z M 23.925781 65.441406 " clip-rule="nonzero"/></clipPath><clipPath id="409ef5ee9d"><path d="M 25.269531 65.441406 C 24.527344 65.441406 23.925781 66.042969 23.925781 66.785156 C 23.925781 67.53125 24.527344 68.132812 25.269531 68.132812 C 26.015625 68.132812 26.617188 67.53125 26.617188 66.785156 C 26.617188 66.042969 26.015625 65.441406 25.269531 65.441406 " clip-rule="nonzero"/></clipPath></defs><g clip-path="url(#79579bb67d)"><g clip-path="url(#ca198f6cb5)"><path fill="#efefef" d="M 79.152344 59.457031 L 164.597656 59.457031 L 164.597656 144.90625 L 79.152344 144.90625 Z M 79.152344 59.457031 " fill-opacity="1" fill-rule="nonzero"/></g></g><g clip-path="url(#716516f251)"><path fill="#00bf63" d="M 150.558594 74.269531 C 142.175781 78.875 124.835938 93.21875 111 116.035156 C 110.550781 116.777344 109.589844 117.015625 108.851562 116.566406 L 108.84375 116.558594 C 108.464844 116.324219 108.089844 116.078125 107.722656 115.816406 C 103.214844 112.613281 93.355469 106.972656 93.355469 106.972656 C 92.738281 106.621094 92.101562 107.089844 92.046875 107.664062 C 92.027344 107.703125 92.027344 107.761719 92.046875 107.847656 C 92.0625 107.976562 92.109375 108.105469 92.191406 108.226562 C 93.015625 110.003906 96.9375 115.414062 100.644531 120.445312 C 104.789062 126.078125 108.457031 129.277344 109.046875 129.777344 C 109.070312 129.792969 109.089844 129.8125 109.113281 129.832031 C 109.125 129.839844 109.132812 129.847656 109.132812 129.847656 C 110.25 130.746094 111.972656 130.46875 112.710938 129.132812 C 118.34375 118.964844 136.578125 87.183594 151.023438 74.957031 C 151.410156 74.628906 151 74.023438 150.558594 74.269531 " fill-opacity="1" fill-rule="nonzero"/></g><g clip-path="url(#6ba500e0f4)"><path fill="#f48786" d="M 96.214844 54.511719 C 94.148438 54.511719 92.476562 52.828125 92.476562 50.773438 C 92.476562 48.707031 94.160156 47.035156 96.214844 47.035156 C 98.28125 47.035156 99.957031 48.714844 99.957031 50.773438 C 99.964844 52.828125 98.28125 54.511719 96.214844 54.511719 Z M 96.214844 47.96875 C 94.679688 47.96875 93.421875 49.226562 93.421875 50.761719 C 93.421875 52.296875 94.679688 53.566406 96.214844 53.566406 C 97.75 53.566406 99.019531 52.308594 99.019531 50.761719 C 99.019531 49.21875 97.761719 47.96875 96.214844 47.96875 Z M 96.214844 47.96875 " fill-opacity="1" fill-rule="nonzero"/></g><g clip-path="url(#635f7283ee)"><path fill="#5271ff" d="M 217.835938 93.238281 C 215.769531 93.238281 214.097656 91.558594 214.097656 89.5 C 214.097656 87.433594 215.78125 85.761719 217.835938 85.761719 C 219.902344 85.761719 221.574219 87.445312 221.574219 89.5 C 221.585938 91.558594 219.902344 93.238281 217.835938 93.238281 Z M 217.835938 86.695312 C 216.300781 86.695312 215.042969 87.957031 215.042969 89.492188 C 215.042969 91.027344 216.300781 92.296875 217.835938 92.296875 C 219.371094 92.296875 220.640625 91.035156 220.640625 89.492188 C 220.640625 87.945312 219.382812 86.695312 217.835938 86.695312 Z M 217.835938 86.695312 " fill-opacity="1" fill-rule="nonzero"/></g><g clip-path="url(#f866fd9198)"><path fill="#ff5757" d="M 218.253906 127.476562 L 210.777344 127.476562 L 214.515625 121.484375 Z M 213.070312 126.140625 L 215.960938 126.140625 L 214.515625 123.824219 Z M 213.070312 126.140625 " fill-opacity="1" fill-rule="nonzero"/></g><g clip-path="url(#0c3cb017e4)"><g clip-path="url(#5b88ce9268)"><g clip-path="url(#8411baa21c)"><path fill="#00bf63" d="M 179.132812 82.691406 L 171.488281 79.628906 L 177.539062 75.601562 Z M 174.328125 79.332031 L 177.285156 80.515625 L 176.667969 77.773438 Z M 174.328125 79.332031 " fill-opacity="1" fill-rule="nonzero"/></g></g></g><g clip-path="url(#b295d4909c)"><g clip-path="url(#eccb7469bc)"><path fill="#fde126" d="M 164.597656 136.320312 L 169.398438 136.320312 L 169.398438 141.570312 L 164.597656 141.570312 Z M 164.597656 136.320312 " fill-opacity="1" fill-rule="nonzero"/></g></g><g clip-path="url(#69ae0f5e3f)"><g clip-path="url(#164ada3302)"><path fill="#d0b9ed" d="M 175.234375 108.796875 L 177.925781 108.796875 L 177.925781 111.488281 L 175.234375 111.488281 Z M 175.234375 108.796875 " fill-opacity="1" fill-rule="nonzero"/></g></g><g clip-path="url(#ff0af03b29)"><g clip-path="url(#76c3c38bdd)"><path fill="#fde126" d="M 164.597656 31.679688 L 171.433594 31.679688 L 171.433594 38.515625 L 164.597656 38.515625 Z M 164.597656 31.679688 " fill-opacity="1" fill-rule="nonzero"/></g></g><g clip-path="url(#40fe1288af)"><g clip-path="url(#0698546b11)"><path fill="#00bf63" d="M 71.238281 52.582031 L 75.882812 52.582031 L 75.882812 57.230469 L 71.238281 57.230469 Z M 71.238281 52.582031 " fill-opacity="1" fill-rule="nonzero"/></g></g><g clip-path="url(#45d5f5a087)"><g clip-path="url(#893e5f2102)"><path fill="#fde126" d="M 67.230469 74.066406 L 73.5625 74.066406 L 73.5625 80.398438 L 67.230469 80.398438 Z M 67.230469 74.066406 " fill-opacity="1" fill-rule="nonzero"/></g></g><g clip-path="url(#7c1c8f1aea)"><g clip-path="url(#c6cf1e1ee8)"><path fill="#fff190" d="M 154.808594 57.230469 L 159.605469 57.230469 L 159.605469 62.480469 L 154.808594 62.480469 Z M 154.808594 57.230469 " fill-opacity="1" fill-rule="nonzero"/></g></g><g clip-path="url(#bdf38556a3)"><path fill="#d0b9ed" d="M 66.230469 109.953125 C 64.992188 109.953125 63.988281 108.941406 63.988281 107.707031 C 63.988281 106.46875 64.996094 105.464844 66.230469 105.464844 C 67.472656 105.464844 68.476562 106.476562 68.476562 107.707031 C 68.480469 108.941406 67.472656 109.953125 66.230469 109.953125 Z M 66.230469 106.027344 C 65.308594 106.027344 64.554688 106.78125 64.554688 107.703125 C 64.554688 108.625 65.308594 109.386719 66.230469 109.386719 C 67.152344 109.386719 67.914062 108.628906 67.914062 107.703125 C 67.914062 106.777344 67.160156 106.027344 66.230469 106.027344 Z M 66.230469 106.027344 " fill-opacity="1" fill-rule="nonzero"/></g><g clip-path="url(#3287190d49)"><g clip-path="url(#409ef5ee9d)"><path fill="#d0b9ed" d="M 23.925781 65.441406 L 26.617188 65.441406 L 26.617188 68.132812 L 23.925781 68.132812 Z M 23.925781 65.441406 " fill-opacity="1" fill-rule="nonzero"/></g></g></svg>