<svg xmlns="http://www.w3.org/2000/svg" xmlns:xlink="http://www.w3.org/1999/xlink" width="325" zoomAndPan="magnify" viewBox="0 0 243.75 187.499995" height="250" preserveAspectRatio="xMidYMid meet" version="1.0"><defs><clipPath id="c54ddd524a"><path d="M 221.9375 35.808594 L 243.300781 35.808594 L 243.300781 89.675781 L 221.9375 89.675781 Z M 221.9375 35.808594 " clip-rule="nonzero"/></clipPath><clipPath id="1aced38fed"><path d="M 248.871094 35.808594 C 233.996094 35.808594 221.9375 47.867188 221.9375 62.742188 C 221.9375 77.617188 233.996094 89.675781 248.871094 89.675781 C 263.746094 89.675781 275.804688 77.617188 275.804688 62.742188 C 275.804688 47.867188 263.746094 35.808594 248.871094 35.808594 " clip-rule="nonzero"/></clipPath><clipPath id="b357f7ef7a"><path d="M 0.199219 65.078125 L 22.816406 65.078125 L 22.816406 114.550781 L 0.199219 114.550781 Z M 0.199219 65.078125 " clip-rule="nonzero"/></clipPath><clipPath id="0b679e9903"><path d="M 0.199219 65.078125 C -12.289062 65.078125 -22.417969 76.089844 -22.417969 89.675781 C -22.417969 103.261719 -12.289062 114.277344 0.199219 114.277344 C 12.691406 114.277344 22.816406 103.261719 22.816406 89.675781 C 22.816406 76.089844 12.691406 65.078125 0.199219 65.078125 " clip-rule="nonzero"/></clipPath><clipPath id="384b897201"><path d="M 79.152344 59.457031 L 164.597656 59.457031 L 164.597656 144.90625 L 79.152344 144.90625 Z M 79.152344 59.457031 " clip-rule="nonzero"/></clipPath><clipPath id="5d2af3a353"><path d="M 121.875 59.457031 C 98.277344 59.457031 79.152344 78.585938 79.152344 102.183594 C 79.152344 125.777344 98.277344 144.90625 121.875 144.90625 C 145.472656 144.90625 164.597656 125.777344 164.597656 102.183594 C 164.597656 78.585938 145.472656 59.457031 121.875 59.457031 " clip-rule="nonzero"/></clipPath><clipPath id="9776807a2f"><path d="M 117.882812 124 L 126.207031 124 L 126.207031 131.71875 L 117.882812 131.71875 Z M 117.882812 124 " clip-rule="nonzero"/></clipPath><clipPath id="4b020d0619"><path d="M 116.4375 74.066406 L 127.59375 74.066406 L 127.59375 120.625 L 116.4375 120.625 Z M 116.4375 74.066406 " clip-rule="nonzero"/></clipPath><clipPath id="563754f299"><path d="M 104 53 L 106 53 L 106 56 L 104 56 Z M 104 53 " clip-rule="nonzero"/></clipPath><clipPath id="d3674b2df2"><path d="M 134.355469 -3.6875 L 209.386719 35.417969 L 178.933594 93.851562 L 103.902344 54.746094 Z M 134.355469 -3.6875 " clip-rule="nonzero"/></clipPath><clipPath id="ab9a611769"><path d="M 134.355469 -3.6875 L 209.386719 35.417969 L 178.933594 93.851562 L 103.902344 54.746094 Z M 134.355469 -3.6875 " clip-rule="nonzero"/></clipPath><clipPath id="c127c8c681"><path d="M 108 21 L 205 21 L 205 56 L 108 56 Z M 108 21 " clip-rule="nonzero"/></clipPath><clipPath id="7222148f6c"><path d="M 134.355469 -3.6875 L 209.386719 35.417969 L 178.933594 93.851562 L 103.902344 54.746094 Z M 134.355469 -3.6875 " clip-rule="nonzero"/></clipPath><clipPath id="46f7eba551"><path d="M 134.355469 -3.6875 L 209.386719 35.417969 L 178.933594 93.851562 L 103.902344 54.746094 Z M 134.355469 -3.6875 " clip-rule="nonzero"/></clipPath><clipPath id="ee97fa5308"><path d="M 204 39 L 207 39 L 207 42 L 204 42 Z M 204 39 " clip-rule="nonzero"/></clipPath><clipPath id="8ca078609c"><path d="M 134.355469 -3.6875 L 209.386719 35.417969 L 178.933594 93.851562 L 103.902344 54.746094 Z M 134.355469 -3.6875 " clip-rule="nonzero"/></clipPath><clipPath id="66d05e3257"><path d="M 134.355469 -3.6875 L 209.386719 35.417969 L 178.933594 93.851562 L 103.902344 54.746094 Z M 134.355469 -3.6875 " clip-rule="nonzero"/></clipPath><clipPath id="6af6a06ff0"><path d="M 9 86 L 12 86 L 12 89 L 9 89 Z M 9 86 " clip-rule="nonzero"/></clipPath><clipPath id="06b55fee7a"><path d="M 7.902344 81.992188 L 101.292969 54.550781 L 103.191406 61.015625 L 9.800781 88.457031 Z M 7.902344 81.992188 " clip-rule="nonzero"/></clipPath><clipPath id="ddd2549738"><path d="M 7.902344 81.992188 L 101.292969 54.550781 L 103.191406 61.015625 L 9.800781 88.457031 Z M 7.902344 81.992188 " clip-rule="nonzero"/></clipPath><clipPath id="720718daee"><path d="M 13 57 L 98 57 L 98 86 L 13 86 Z M 13 57 " clip-rule="nonzero"/></clipPath><clipPath id="ddc4ac51ad"><path d="M 7.902344 81.992188 L 101.292969 54.550781 L 103.191406 61.015625 L 9.800781 88.457031 Z M 7.902344 81.992188 " clip-rule="nonzero"/></clipPath><clipPath id="caf151bdf2"><path d="M 7.902344 81.992188 L 101.292969 54.550781 L 103.191406 61.015625 L 9.800781 88.457031 Z M 7.902344 81.992188 " clip-rule="nonzero"/></clipPath><clipPath id="36bd9f451d"><path d="M 99 54 L 102 54 L 102 57 L 99 57 Z M 99 54 " clip-rule="nonzero"/></clipPath><clipPath id="0c8f25c2bd"><path d="M 7.902344 81.992188 L 101.292969 54.550781 L 103.191406 61.015625 L 9.800781 88.457031 Z M 7.902344 81.992188 " clip-rule="nonzero"/></clipPath><clipPath id="879c76b534"><path d="M 7.902344 81.992188 L 101.292969 54.550781 L 103.191406 61.015625 L 9.800781 88.457031 Z M 7.902344 81.992188 " clip-rule="nonzero"/></clipPath><clipPath id="728cced3be"><path d="M 206 42 L 213 42 L 213 46 L 206 46 Z M 206 42 " clip-rule="nonzero"/></clipPath><clipPath id="2fe3bdee15"><path d="M 215.085938 45.722656 L 206.066406 52.417969 L 201.160156 45.804688 L 210.175781 39.109375 Z M 215.085938 45.722656 " clip-rule="nonzero"/></clipPath><clipPath id="a11f851d54"><path d="M 215.085938 45.722656 L 206.066406 52.417969 L 201.160156 45.804688 L 210.175781 39.109375 Z M 215.085938 45.722656 " clip-rule="nonzero"/></clipPath><clipPath id="ebd295daed"><path d="M 204 42 L 208 42 L 208 50 L 204 50 Z M 204 42 " clip-rule="nonzero"/></clipPath><clipPath id="0987ae4291"><path d="M 215.085938 45.722656 L 206.066406 52.417969 L 201.160156 45.804688 L 210.175781 39.109375 Z M 215.085938 45.722656 " clip-rule="nonzero"/></clipPath><clipPath id="07485bdf5e"><path d="M 215.085938 45.722656 L 206.066406 52.417969 L 201.160156 45.804688 L 210.175781 39.109375 Z M 215.085938 45.722656 " clip-rule="nonzero"/></clipPath><clipPath id="78dabbbfc9"><path d="M 207 44 L 211 44 L 211 49 L 207 49 Z M 207 44 " clip-rule="nonzero"/></clipPath><clipPath id="de515bbd6b"><path d="M 215.085938 45.722656 L 206.066406 52.417969 L 201.160156 45.804688 L 210.175781 39.109375 Z M 215.085938 45.722656 " clip-rule="nonzero"/></clipPath><clipPath id="18cb835cd1"><path d="M 215.085938 45.722656 L 206.066406 52.417969 L 201.160156 45.804688 L 210.175781 39.109375 Z M 215.085938 45.722656 " clip-rule="nonzero"/></clipPath><clipPath id="f654d2ece1"><path d="M 202 43 L 205 43 L 205 47 L 202 47 Z M 202 43 " clip-rule="nonzero"/></clipPath><clipPath id="39187ff28e"><path d="M 215.085938 45.722656 L 206.066406 52.417969 L 201.160156 45.804688 L 210.175781 39.109375 Z M 215.085938 45.722656 " clip-rule="nonzero"/></clipPath><clipPath id="36d7f7dabb"><path d="M 215.085938 45.722656 L 206.066406 52.417969 L 201.160156 45.804688 L 210.175781 39.109375 Z M 215.085938 45.722656 " clip-rule="nonzero"/></clipPath><clipPath id="234ce97f95"><path d="M 208 40 L 212 40 L 212 42 L 208 42 Z M 208 40 " clip-rule="nonzero"/></clipPath><clipPath id="b83d7443fc"><path d="M 215.085938 45.722656 L 206.066406 52.417969 L 201.160156 45.804688 L 210.175781 39.109375 Z M 215.085938 45.722656 " clip-rule="nonzero"/></clipPath><clipPath id="5927539946"><path d="M 215.085938 45.722656 L 206.066406 52.417969 L 201.160156 45.804688 L 210.175781 39.109375 Z M 215.085938 45.722656 " clip-rule="nonzero"/></clipPath></defs><g clip-path="url(#c54ddd524a)"><g clip-path="url(#1aced38fed)"><path fill="#e9e9f1" d="M 221.9375 35.808594 L 275.804688 35.808594 L 275.804688 89.675781 L 221.9375 89.675781 Z M 221.9375 35.808594 " fill-opacity="1" fill-rule="nonzero"/></g></g><g clip-path="url(#b357f7ef7a)"><g clip-path="url(#0b679e9903)"><path fill="#e9e9f1" d="M -22.417969 65.078125 L 22.816406 65.078125 L 22.816406 114.550781 L -22.417969 114.550781 Z M -22.417969 65.078125 " fill-opacity="1" fill-rule="nonzero"/></g></g><g clip-path="url(#384b897201)"><g clip-path="url(#5d2af3a353)"><path fill="#f4eae9" d="M 79.152344 59.457031 L 164.597656 59.457031 L 164.597656 144.90625 L 79.152344 144.90625 Z M 79.152344 59.457031 " fill-opacity="1" fill-rule="nonzero"/></g></g><g clip-path="url(#9776807a2f)"><path fill="#f57c7f" d="M 122.140625 124.015625 L 121.890625 124.015625 C 119.710938 124.015625 117.9375 125.742188 117.9375 127.867188 C 117.9375 129.992188 119.710938 131.71875 121.890625 131.71875 L 122.140625 131.71875 C 124.320312 131.71875 126.09375 129.992188 126.09375 127.867188 C 126.09375 125.742188 124.320312 124.015625 122.140625 124.015625 " fill-opacity="1" fill-rule="nonzero"/></g><g clip-path="url(#4b020d0619)"><path fill="#f57c7f" d="M 127.578125 79.925781 L 124.519531 118.335938 C 124.410156 119.679688 123.203125 120.6875 121.820312 120.585938 C 120.570312 120.488281 119.605469 119.515625 119.511719 118.335938 L 116.453125 79.925781 C 116.214844 76.929688 118.511719 74.316406 121.585938 74.082031 C 124.65625 73.851562 127.339844 76.089844 127.578125 79.082031 C 127.597656 79.355469 127.597656 79.660156 127.578125 79.925781 " fill-opacity="1" fill-rule="nonzero"/></g><g clip-path="url(#563754f299)"><g clip-path="url(#d3674b2df2)"><g clip-path="url(#ab9a611769)"><path fill="#efefef" d="M 104.332031 54.96875 L 104.421875 53.792969 C 104.902344 53.828125 105.386719 53.851562 105.875 53.871094 L 105.835938 55.054688 C 105.328125 55.03125 104.824219 55.007812 104.332031 54.96875 Z M 104.332031 54.96875 " fill-opacity="1" fill-rule="nonzero"/></g></g></g><g clip-path="url(#c127c8c681)"><g clip-path="url(#7222148f6c)"><g clip-path="url(#46f7eba551)"><path fill="#efefef" d="M 108.820312 55.011719 L 108.761719 53.832031 C 109.714844 53.777344 110.6875 53.6875 111.648438 53.558594 L 111.800781 54.730469 C 110.808594 54.863281 109.800781 54.953125 108.820312 55.011719 Z M 114.746094 54.207031 L 114.496094 53.050781 C 115.4375 52.847656 116.382812 52.601562 117.304688 52.324219 L 117.640625 53.457031 C 116.6875 53.746094 115.710938 53.996094 114.746094 54.207031 Z M 120.472656 52.484375 L 120.050781 51.378906 C 120.949219 51.035156 121.84375 50.648438 122.714844 50.230469 L 123.21875 51.296875 C 122.320312 51.734375 121.398438 52.125 120.472656 52.484375 Z M 125.871094 49.90625 L 125.289062 48.878906 C 126.128906 48.398438 126.957031 47.882812 127.746094 47.332031 L 128.40625 48.308594 C 127.589844 48.871094 126.738281 49.410156 125.871094 49.90625 Z M 130.820312 46.523438 L 130.082031 45.601562 C 130.835938 44.992188 131.574219 44.351562 132.269531 43.691406 L 133.070312 44.546875 C 132.355469 45.230469 131.597656 45.894531 130.820312 46.523438 Z M 129.597656 41.382812 C 128.671875 40.890625 127.84375 40.269531 127.105469 39.527344 L 127.945312 38.691406 C 128.597656 39.355469 129.332031 39.90625 130.152344 40.34375 Z M 132.5 42.441406 L 132.761719 41.289062 C 133.289062 41.40625 133.824219 41.488281 134.363281 41.535156 C 134.980469 40.832031 135.582031 40.105469 136.136719 39.363281 L 137.078125 40.070312 C 136.59375 40.714844 136.082031 41.347656 135.550781 41.964844 L 135.550781 42.769531 C 134.519531 42.769531 133.5 42.660156 132.496094 42.441406 Z M 125.304688 36.972656 C 124.945312 36.21875 124.707031 35.425781 124.59375 34.597656 C 124.5625 34.367188 124.539062 34.132812 124.527344 33.902344 L 125.707031 33.839844 C 125.714844 34.035156 125.734375 34.234375 125.761719 34.429688 C 125.859375 35.136719 126.0625 35.8125 126.371094 36.453125 Z M 138.582031 42.492188 L 138.378906 41.328125 C 138.625 41.28125 138.875 41.234375 139.125 41.175781 C 139.808594 41.023438 140.484375 40.835938 141.148438 40.613281 L 141.515625 41.734375 C 140.800781 41.972656 140.078125 42.171875 139.375 42.332031 C 139.109375 42.386719 138.839844 42.441406 138.578125 42.488281 Z M 124.933594 30.785156 C 125.144531 30.113281 125.414062 29.464844 125.738281 28.839844 C 125.890625 28.550781 126.058594 28.253906 126.238281 27.972656 L 127.234375 28.59375 C 127.074219 28.855469 126.921875 29.121094 126.785156 29.386719 C 126.492188 29.945312 126.25 30.527344 126.0625 31.128906 Z M 144.3125 40.613281 L 143.820312 39.542969 C 144.652344 39.15625 145.496094 38.722656 146.398438 38.207031 L 146.976562 39.238281 C 146.035156 39.777344 145.171875 40.222656 144.308594 40.617188 Z M 138.769531 37.585938 L 137.769531 36.964844 C 138.042969 36.523438 138.304688 36.074219 138.558594 35.621094 C 138.679688 35.390625 138.796875 35.164062 138.910156 34.949219 C 139 34.773438 139.09375 34.601562 139.183594 34.425781 L 140.238281 34.945312 C 140.144531 35.125 140.050781 35.308594 139.953125 35.492188 C 139.835938 35.71875 139.714844 35.953125 139.578125 36.1875 C 139.324219 36.667969 139.046875 37.136719 138.769531 37.589844 Z M 149.527344 37.695312 L 148.902344 36.699219 C 149.765625 36.144531 150.628906 35.578125 151.359375 35.089844 L 152.007812 36.070312 C 151.269531 36.570312 150.394531 37.148438 149.527344 37.699219 Z M 128.972656 26.347656 L 128.121094 25.550781 C 128.828125 24.796875 129.617188 24.136719 130.484375 23.566406 L 131.125 24.554688 C 130.339844 25.070312 129.621094 25.667969 128.972656 26.347656 Z M 140.222656 31.792969 C 140.476562 30.929688 140.613281 30.050781 140.628906 29.15625 L 140.628906 29.046875 L 141.808594 29.03125 L 141.804688 29.164062 C 141.785156 30.167969 141.636719 31.148438 141.355469 32.113281 Z M 154.457031 34.449219 L 153.8125 33.460938 C 154.4375 33.046875 154.992188 32.691406 155.496094 32.371094 C 155.769531 32.199219 156.042969 32.027344 156.3125 31.859375 L 156.925781 32.867188 C 156.660156 33.03125 156.390625 33.199219 156.125 33.367188 C 155.625 33.679688 155.082031 34.03125 154.460938 34.441406 Z M 133.609375 23.367188 L 133.28125 22.234375 C 134.316406 21.90625 135.375 21.820312 136.449219 21.972656 L 136.269531 23.128906 C 135.367188 23.007812 134.484375 23.082031 133.617188 23.359375 Z M 140.109375 26.390625 C 139.777344 25.546875 139.277344 24.824219 138.601562 24.21875 L 139.375 23.324219 C 140.191406 24.050781 140.800781 24.925781 141.199219 25.945312 Z M 159.453125 31.394531 L 158.886719 30.359375 C 159.761719 29.875 160.652344 29.410156 161.527344 28.980469 L 162.042969 30.042969 C 161.191406 30.457031 160.316406 30.910156 159.457031 31.386719 Z M 164.695312 28.835938 L 164.242188 27.746094 C 165.167969 27.351562 166.101562 26.988281 167.019531 26.660156 L 167.410156 27.773438 C 166.519531 28.085938 165.605469 28.441406 164.703125 28.828125 Z M 170.183594 26.886719 L 169.863281 25.753906 C 170.832031 25.476562 171.808594 25.234375 172.769531 25.035156 L 173.003906 26.195312 C 172.078125 26.378906 171.128906 26.613281 170.191406 26.882812 Z M 175.863281 25.707031 L 175.722656 24.539062 C 176.527344 24.429688 177.363281 24.355469 178.167969 24.3125 C 178.347656 24.296875 178.523438 24.289062 178.703125 24.28125 L 178.75 25.460938 C 178.578125 25.46875 178.40625 25.476562 178.238281 25.488281 C 177.457031 25.523438 176.660156 25.597656 175.867188 25.703125 Z M 203.546875 37.382812 C 203.039062 36.570312 202.484375 35.792969 201.878906 35.050781 L 202.789062 34.300781 C 203.429688 35.078125 204.015625 35.898438 204.546875 36.753906 Z M 181.632812 25.460938 L 181.703125 24.273438 C 182.695312 24.324219 183.699219 24.421875 184.683594 24.574219 L 184.511719 25.738281 C 183.5625 25.597656 182.59375 25.503906 181.636719 25.453125 Z M 199.929688 32.960938 C 199.234375 32.296875 198.503906 31.679688 197.738281 31.105469 L 198.445312 30.160156 C 199.246094 30.761719 200.011719 31.414062 200.738281 32.105469 Z M 187.347656 26.292969 L 187.628906 25.144531 C 188.601562 25.378906 189.570312 25.652344 190.503906 25.984375 L 190.117188 27.101562 C 189.210938 26.78125 188.28125 26.511719 187.34375 26.285156 Z M 195.34375 29.5 C 194.515625 29.015625 193.664062 28.570312 192.792969 28.171875 L 193.285156 27.089844 C 194.203125 27.515625 195.089844 27.992188 195.945312 28.480469 Z M 195.34375 29.5 " fill-opacity="1" fill-rule="nonzero"/></g></g></g><g clip-path="url(#ee97fa5308)"><g clip-path="url(#8ca078609c)"><g clip-path="url(#66d05e3257)"><path fill="#efefef" d="M 205.445312 41.257812 C 205.28125 40.8125 205.097656 40.367188 204.902344 39.929688 L 205.976562 39.445312 C 206.179688 39.902344 206.375 40.375 206.550781 40.84375 Z M 205.445312 41.257812 " fill-opacity="1" fill-rule="nonzero"/></g></g></g><g clip-path="url(#6af6a06ff0)"><g clip-path="url(#06b55fee7a)"><g clip-path="url(#ddd2549738)"><path fill="#efefef" d="M 10.226562 88.324219 L 9.484375 87.378906 C 9.90625 87.066406 10.339844 86.757812 10.765625 86.457031 L 11.488281 87.417969 C 11.066406 87.71875 10.65625 88.015625 10.226562 88.324219 Z M 10.226562 88.324219 " fill-opacity="1" fill-rule="nonzero"/></g></g></g><g clip-path="url(#720718daee)"><g clip-path="url(#ddc4ac51ad)"><g clip-path="url(#caf151bdf2)"><path fill="#efefef" d="M 75.226562 69.113281 C 74.347656 69.371094 73.449219 69.617188 72.5625 69.847656 L 72.265625 68.683594 C 73.25 68.433594 74.238281 68.15625 75.207031 67.867188 L 75.546875 69.015625 Z M 78.503906 68.066406 L 78.113281 66.933594 C 79.074219 66.609375 80.035156 66.257812 80.980469 65.894531 L 81.421875 67.007812 C 80.464844 67.382812 79.480469 67.738281 78.503906 68.066406 Z M 69.53125 70.554688 C 68.523438 70.773438 67.5 70.972656 66.496094 71.144531 L 66.304688 69.960938 C 67.300781 69.789062 68.308594 69.59375 69.300781 69.378906 Z M 84.296875 65.839844 L 83.820312 64.742188 C 84.75 64.34375 85.683594 63.917969 86.597656 63.484375 L 87.132812 64.558594 C 86.195312 65.003906 85.253906 65.433594 84.296875 65.84375 Z M 63.421875 71.625 C 62.472656 71.753906 61.46875 71.882812 60.355469 72.007812 L 60.25 70.808594 C 61.351562 70.683594 62.347656 70.558594 63.289062 70.429688 Z M 14.011719 85.722656 L 13.328125 84.730469 C 14.1875 84.171875 15.074219 83.625 15.957031 83.097656 L 16.597656 84.117188 C 15.730469 84.636719 14.859375 85.175781 14.011719 85.722656 Z M 89.894531 63.171875 L 89.316406 62.121094 C 90.210938 61.648438 91.109375 61.15625 91.984375 60.652344 L 92.605469 61.679688 C 91.710938 62.191406 90.804688 62.695312 89.894531 63.171875 Z M 57.277344 72.332031 L 55.339844 72.527344 L 54.230469 72.636719 L 54.125 71.441406 L 55.238281 71.332031 L 57.183594 71.140625 Z M 19.246094 82.609375 L 18.640625 81.570312 C 19.542969 81.070312 20.464844 80.597656 21.390625 80.140625 L 21.949219 81.203125 C 21.046875 81.664062 20.132812 82.128906 19.246094 82.609375 Z M 95.261719 60.09375 L 94.59375 59.09375 C 95.449219 58.554688 96.300781 57.992188 97.132812 57.421875 L 97.84375 58.386719 C 96.996094 58.964844 96.128906 59.535156 95.261719 60.09375 Z M 51.167969 72.945312 C 50.054688 73.066406 49.058594 73.183594 48.128906 73.304688 L 48 72.101562 C 48.949219 71.976562 49.941406 71.863281 51.066406 71.742188 Z M 24.707031 79.898438 L 24.199219 78.8125 C 25.136719 78.386719 26.09375 77.976562 27.046875 77.589844 L 27.511719 78.695312 C 26.574219 79.078125 25.628906 79.480469 24.707031 79.898438 Z M 45.121094 73.738281 C 44.121094 73.902344 43.113281 74.09375 42.113281 74.285156 L 41.890625 73.109375 C 42.902344 72.90625 43.929688 72.714844 44.9375 72.554688 Z M 30.367188 77.605469 L 29.941406 76.46875 C 30.910156 76.117188 31.898438 75.777344 32.878906 75.460938 L 33.25 76.601562 C 32.285156 76.917969 31.3125 77.238281 30.363281 77.597656 Z M 39.128906 74.945312 C 38.144531 75.179688 37.148438 75.441406 36.171875 75.71875 L 35.84375 74.570312 C 36.835938 74.292969 37.84375 74.027344 38.84375 73.785156 Z M 39.128906 74.945312 " fill-opacity="1" fill-rule="nonzero"/></g></g></g><g clip-path="url(#36bd9f451d)"><g clip-path="url(#0c8f25c2bd)"><g clip-path="url(#879c76b534)"><path fill="#efefef" d="M 100.355469 56.582031 L 99.601562 55.644531 C 100.003906 55.335938 100.429688 55.019531 100.832031 54.703125 L 101.609375 55.625 C 101.199219 55.949219 100.777344 56.269531 100.355469 56.582031 Z M 100.355469 56.582031 " fill-opacity="1" fill-rule="nonzero"/></g></g></g><g clip-path="url(#728cced3be)"><g clip-path="url(#2fe3bdee15)"><g clip-path="url(#a11f851d54)"><path fill="#e9e9f1" d="M 206.730469 42.34375 C 206.730469 42.34375 211.628906 42.117188 212.5 44.355469 C 213.367188 46.59375 208.542969 45.25 206.730469 42.34375 Z M 206.730469 42.34375 " fill-opacity="1" fill-rule="nonzero"/></g></g></g><g clip-path="url(#ebd295daed)"><g clip-path="url(#0987ae4291)"><g clip-path="url(#07485bdf5e)"><path fill="#e9e9f1" d="M 206.128906 42.828125 C 206.128906 42.828125 208.226562 47.191406 206.492188 48.925781 C 204.757812 50.664062 204.148438 45.691406 206.128906 42.828125 Z M 206.128906 42.828125 " fill-opacity="1" fill-rule="nonzero"/></g></g></g><g clip-path="url(#78dabbbfc9)"><g clip-path="url(#de515bbd6b)"><g clip-path="url(#18cb835cd1)"><path fill="#e9e9f1" d="M 207.644531 44.644531 C 207.644531 44.644531 210.59375 46.078125 210.378906 47.703125 C 210.164062 49.328125 207.765625 46.96875 207.644531 44.644531 Z M 207.644531 44.644531 " fill-opacity="1" fill-rule="nonzero"/></g></g></g><g clip-path="url(#f654d2ece1)"><g clip-path="url(#39187ff28e)"><g clip-path="url(#36d7f7dabb)"><path fill="#e9e9f1" d="M 204.734375 43.554688 C 204.734375 43.554688 204.585938 46.074219 203.375 46.4375 C 202.164062 46.804688 203.125 44.371094 204.734375 43.554688 Z M 204.734375 43.554688 " fill-opacity="1" fill-rule="nonzero"/></g></g></g><g clip-path="url(#234ce97f95)"><g clip-path="url(#b83d7443fc)"><g clip-path="url(#5927539946)"><path fill="#e9e9f1" d="M 208.292969 41.308594 C 208.292969 41.308594 210.589844 40.234375 211.460938 41.128906 C 212.335938 42.027344 209.734375 42.332031 208.292969 41.308594 Z M 208.292969 41.308594 " fill-opacity="1" fill-rule="nonzero"/></g></g></g></svg>